<svg width="104" height="22" xmlns="http://www.w3.org/2000/svg" xmlns:xlink="http://www.w3.org/1999/xlink" xml:space="preserve" overflow="hidden"><defs><clipPath id="clip0"><rect x="693" y="677" width="103" height="21"/></clipPath><clipPath id="clip1"><rect x="693" y="677" width="103" height="21"/></clipPath><clipPath id="clip2"><rect x="693" y="677" width="103" height="21"/></clipPath></defs><g transform="translate(-692 -676)"><g><g clip-path="url(#clip0)"><g clip-path="url(#clip1)"><g clip-path="url(#clip2)"><path d="M213.639 82.0234C213.14 81.6363 212.513 81.4519 211.884 81.5064 211.257 81.4508 210.633 81.6356 210.137 82.0234 209.774 82.3685 209.592 83.0088 209.592 83.9448L209.592 86.8083C209.569 87.3335 209.65 87.8579 209.833 88.3508 209.967 88.6888 210.229 88.9612 210.562 89.109 210.984 89.2669 211.434 89.3389 211.884 89.321 212.486 89.3587 213.08 89.1677 213.547 88.7857 213.941 88.429 214.144 87.7945 214.157 86.8826L214.175 83.9448C214.188 83.0092 214.01 82.3685 213.64 82.0234M208.771 80.7785C209.394 80.1441 210.431 79.8266 211.884 79.8262 213.336 79.8258 214.373 80.1433 214.996 80.7785 215.618 81.4126 215.929 82.4684 215.929 83.9463L215.929 94.5692 214.155 94.5692 214.155 89.9123C213.907 90.2655 213.564 90.541 213.166 90.7067 212.672 90.9144 212.14 91.0152 211.604 91.0023 210.287 91.0023 209.329 90.6545 208.731 89.9586 208.133 89.2626 207.835 88.2255 207.837 86.8465L207.837 83.9455C207.837 82.4673 208.148 81.4115 208.77 80.7778" fill="#FF4000" fill-rule="nonzero" fill-opacity="1" transform="matrix(1.00706 0 0 1 514.98 601.81)"/><path d="M269.823 133.683C270.065 133.461 270.382 133.34 270.71 133.343 271.037 133.335 271.354 133.452 271.596 133.672 271.848 133.918 271.98 134.262 271.958 134.613 271.977 134.962 271.836 135.3 271.575 135.532 271.323 135.75 270.999 135.866 270.666 135.86 270.346 135.867 270.036 135.749 269.801 135.532 269.311 135.009 269.321 134.194 269.823 133.683" fill="#FF4000" fill-rule="nonzero" fill-opacity="1" transform="matrix(1.00706 0 0 1 462.878 556.864)"/><path d="M296.983 70.2077C297.482 70.5948 298.109 70.7792 298.738 70.7247 299.365 70.78 299.989 70.5952 300.483 70.2077 300.846 69.8631 301.028 69.2227 301.028 68.2864L301.028 65.4228C301.052 64.8976 300.97 64.3732 300.789 63.88 300.653 63.5423 300.391 63.2704 300.059 63.1222 299.637 62.9638 299.188 62.8915 298.738 62.9101 298.136 62.872 297.542 63.0634 297.075 63.4458 296.681 63.8029 296.477 64.4374 296.465 65.3489L296.447 68.2868C296.434 69.2224 296.613 69.8631 296.983 70.2081M301.851 71.453C301.229 72.0875 300.191 72.4049 298.739 72.4045 297.287 72.4041 296.249 72.0871 295.627 71.453 295.004 70.8193 294.693 69.7635 294.693 68.2852L294.693 57.6813 296.467 57.6813 296.467 62.3208C296.714 61.9672 297.057 61.6917 297.455 61.5264 297.949 61.3183 298.481 61.2175 299.016 61.2304 300.334 61.2304 301.291 61.5785 301.889 62.2745 302.487 62.9704 302.786 64.0079 302.784 65.3866L302.784 68.2879C302.784 69.7662 302.473 70.8224 301.85 71.4561" fill="#FF4000" fill-rule="nonzero" fill-opacity="1" transform="matrix(1.00706 0 0 1 441.522 620.407)"/><path d="M363.966 84.5948 363.966 83.6896C363.966 82.803 363.772 82.1965 363.384 81.8701 362.884 81.5091 362.272 81.336 361.657 81.3807 361.051 81.3325 360.448 81.5029 359.957 81.8604 359.588 82.1813 359.404 82.7905 359.403 83.6888L359.403 84.5944ZM364.659 90.1834C364.024 90.7316 363.023 91.0058 361.657 91.0058 360.862 91.0373 360.07 90.9047 359.329 90.6168 358.766 90.3737 358.315 89.9286 358.064 89.3696 357.768 88.6336 357.633 87.8431 357.666 87.0507L357.666 83.6896C357.666 82.3354 358.008 81.3535 358.692 80.7431 359.376 80.1328 360.364 79.8278 361.657 79.8282 364.317 79.8282 365.648 81.1154 365.648 83.6896L365.648 86.1287 359.404 86.1287 359.404 87.0153C359.381 87.5132 359.463 88.0104 359.644 88.4749 359.781 88.7974 360.04 89.053 360.364 89.186 360.779 89.3311 361.218 89.3969 361.657 89.3805 362.254 89.426 362.851 89.2875 363.366 88.9833 363.742 88.6908 363.946 88.2298 363.911 87.7548L365.611 87.7548C365.611 88.8266 365.293 89.6361 364.659 90.1838" fill="#FF4000" fill-rule="nonzero" fill-opacity="1" transform="matrix(1.00706 0 0 1 388.261 601.807)"/><path d="M419.07 84.3501 420.124 80.9878 421.953 80.9878 418.572 91.8142 417.927 93.8651C417.751 94.4973 417.432 95.0796 416.993 95.5648 416.623 95.9324 416.118 96.1323 415.596 96.1187 415.044 96.0946 414.499 95.9693 413.99 95.7495L414.305 94.253C414.585 94.3747 414.884 94.4494 415.192 94.4751 415.744 94.4751 416.137 94.0989 416.37 93.347L416.818 91.8138 413.379 80.9878 415.301 80.9878 416.335 84.461 417.72 89.4673C417.981 88.1497 418.432 86.4442 419.07 84.3501" fill="#FF4000" fill-rule="nonzero" fill-opacity="1" transform="matrix(1.00706 0 0 1 341.142 600.833)"/><path d="M478.018 88.9024C478.368 88.5208 478.543 87.8497 478.543 86.8889L478.543 83.7479C478.567 83.248 478.481 82.7493 478.287 82.2883 478.135 81.9666 477.867 81.7153 477.536 81.5881 476.699 81.3418 475.809 81.3418 474.968 81.5881 474.638 81.7153 474.369 81.9662 474.221 82.2883 474.027 82.7493 473.937 83.248 473.965 83.7479L473.965 86.8889C473.965 87.8486 474.144 88.5196 474.498 88.9024 474.856 89.2852 475.439 89.4758 476.252 89.4747 477.077 89.4747 477.668 89.284 478.018 88.9024M473.14 90.0578C472.518 89.4245 472.206 88.3687 472.206 86.89L472.206 83.7487C472.206 82.3696 472.553 81.3718 473.253 80.756 473.949 80.1402 474.949 79.8321 476.252 79.8317 477.559 79.8317 478.559 80.1398 479.255 80.756 479.952 81.3722 480.302 82.3696 480.298 83.7487L480.298 86.8896C480.298 88.3551 479.983 89.4081 479.349 90.0489 478.715 90.6896 477.684 91.0101 476.252 91.0097 474.797 91.0097 473.762 90.6923 473.14 90.0578" fill="#FF4000" fill-rule="nonzero" fill-opacity="1" transform="matrix(1.00706 0 0 1 291.387 601.805)"/><path d="M539.176 80.0188 539.289 81.108C539.549 80.6579 539.954 80.3074 540.432 80.111 540.954 79.9169 541.506 79.8227 542.058 79.8332 543.292 79.8332 544.198 80.1316 544.778 80.728 545.353 81.3243 545.645 82.3253 545.645 83.7304L545.645 90.8249 543.871 90.8249 543.871 83.7514C543.914 83.1274 543.712 82.5112 543.307 82.0335 542.899 81.6266 542.339 81.4115 541.763 81.4414 541.137 81.415 540.526 81.6262 540.047 82.0323 539.584 82.4727 539.339 83.0955 539.382 83.7327L539.382 90.8265 537.608 90.8265 537.608 80.0188Z" fill="#FF4000" fill-rule="nonzero" fill-opacity="1" transform="matrix(1.00706 0 0 1 236.073 601.802)"/><path d="M607.725 63.4657C607.386 63.1089 606.815 62.9304 606.017 62.93 605.383 62.8724 604.753 63.0759 604.27 63.4937 603.909 63.8691 603.726 64.525 603.726 65.4613L603.726 68.528C603.726 69.378 603.897 69.9634 604.235 70.2836 604.706 70.6462 605.297 70.8177 605.889 70.7633 606.55 70.7866 607.192 70.5205 607.643 70.0335 608.036 69.5717 608.234 68.8294 608.234 67.8071L608.234 65.3683C608.234 64.4576 608.063 63.8232 607.725 63.4653M608.53 72.2225 608.308 70.8014C608.118 71.2896 607.768 71.6977 607.312 71.9568 606.803 72.2621 606.219 72.4189 605.628 72.4092 604.648 72.4707 603.679 72.1458 602.932 71.5036 602.29 70.8998 601.971 69.9024 601.971 68.5108L601.971 65.4255C601.971 64.0091 602.286 62.956 602.92 62.2663 603.632 61.5462 604.62 61.1685 605.628 61.2311 606.161 61.2167 606.69 61.2825 607.2 61.4256 607.616 61.561 607.978 61.8224 608.234 62.1741L608.234 57.6813 610.008 57.6813 610.008 72.2225Z" fill="#FF4000" fill-rule="nonzero" fill-opacity="1" transform="matrix(1.00706 0 0 1 181.637 620.407)"/><path d="M32.9522 59.4809C32.9522 61.5353 31.1604 63.2077 28.9582 63.2077 28.2852 63.2077 27.5935 63.2046 26.8894 63.2019 23.7994 63.1891 20.6005 63.1774 17.8221 63.3824L17.5335 63.4038 17.5335 57.9494C17.5335 55.895 19.3253 54.2234 21.5271 54.2234L28.9574 54.2234C31.1596 54.2234 32.9514 55.8961 32.9514 57.949ZM28.9582 50.8871 21.5279 50.8871C17.4732 50.8871 14.1754 53.9401 14.1754 57.695L14.1754 67.0353C15.148 66.8879 18.5542 66.5346 28.9605 66.5436 30.9153 66.5836 32.8104 65.8686 34.2511 64.5467 35.5752 63.2984 36.3218 61.5567 36.3129 59.7369L36.3129 57.6946C36.3129 53.9409 33.0141 50.8867 28.9605 50.8867" fill="#FF4000" fill-rule="nonzero" fill-opacity="1" transform="matrix(1.00706 0 0 1 678.773 626.113)"/><path d="M86.2454 158.243 84.4633 158.259C82.568 158.348 81.0641 159.887 81.0197 161.784L81.0197 161.813C81.6678 161.731 82.4634 161.558 86.1684 161.532L87.5786 161.519C89.4743 161.43 90.9782 159.891 91.023 157.994L91.023 157.964C90.3959 158.044 89.6392 158.208 86.2454 158.243" fill="#FF4000" fill-rule="nonzero" fill-opacity="1" transform="matrix(1.00706 0 0 1 622.238 536.186)"/></g></g></g></g></g></svg>